<svg xmlns="http://www.w3.org/2000/svg" viewBox="0 0 512 512" role="img" aria-label="BussRadar icon">
  <rect width="512" height="512" rx="96" fill="#0f5e62"/>
  <path fill="#ffffff" d="M144 92h224c34 0 62 28 62 62v178c0 28-19 52-45 59v39a22 22 0 0 1-22 22h-16a22 22 0 0 1-22-22v-34H187v34a22 22 0 0 1-22 22h-16a22 22 0 0 1-22-22v-39c-26-7-45-31-45-59V154c0-34 28-62 62-62Zm12 48c-14 0-26 12-26 26v64h252v-64c0-14-12-26-26-26H156Zm-26 138v46c0 14 12 26 26 26h200c14 0 26-12 26-26v-46H130Zm56 24a24 24 0 1 1 0 48 24 24 0 0 1 0-48Zm140 0a24 24 0 1 1 0 48 24 24 0 0 1 0-48Z"/>
  <path fill="#d98a1f" d="M99 118c-34 34-53 80-53 128a181 181 0 0 0 53 128l29-29a140 140 0 0 1-41-99c0-37 14-72 41-99l-29-29Zm314 0-29 29c27 27 41 62 41 99s-14 72-41 99l29 29a181 181 0 0 0 53-128c0-48-19-94-53-128Z"/>
</svg>
